<svg width="345" height="454" viewBox="0 0 345 454" fill="none" xmlns="http://www.w3.org/2000/svg">
<path d="M273.55 6.49292C282.003 1.35758 290.308 -0.531484 297.931 1.60034C305.554 3.73225 311.674 9.6557 316.237 18.4314C320.8 27.206 323.831 38.8766 325.267 52.6082C328.138 80.0746 324.636 115.895 314.1 153.57C305.297 185.048 295.376 203.321 284.563 213.291C322.524 247.93 344 298.157 344 343C344 382.104 327.677 409.769 298.343 427.629C269.047 445.465 226.813 453.5 175 453.5C123.186 453.5 79.5828 445.465 48.916 427.635C18.213 409.783 0.5 382.122 0.5 343C0.500055 303.923 18.1697 260.806 48.7988 227.46C52.5962 223.326 56.5936 219.341 60.7812 215.533C48.9476 206.168 38.1371 187.573 28.6279 153.57C18.0918 115.895 14.5898 80.0746 17.4609 52.6082C18.8963 38.8767 21.9269 27.206 26.4893 18.4314C31.0523 9.65574 37.1726 3.73228 44.7959 1.60034C52.4192 -0.531568 60.7243 1.35738 69.1777 6.49292C77.6302 11.6279 86.2756 20.0331 94.626 31.0281C111.329 53.0206 126.916 85.4613 137.452 123.136C143.344 144.205 145.956 160.415 145.988 173.021C155.329 171.373 165.011 170.5 175 170.5C182.452 170.5 189.704 170.986 196.747 171.917C196.924 159.472 199.553 143.595 205.274 123.136C215.811 85.4612 231.399 53.0206 248.102 31.0281C256.452 20.0331 265.097 11.6278 273.55 6.49292Z" fill="white"/>
<path d="M273.55 6.49292C282.003 1.35758 290.308 -0.531484 297.931 1.60034C305.554 3.73225 311.674 9.6557 316.237 18.4314C320.8 27.206 323.831 38.8766 325.267 52.6082C328.138 80.0746 324.636 115.895 314.1 153.57C305.297 185.048 295.376 203.321 284.563 213.291C322.524 247.93 344 298.157 344 343C344 382.104 327.677 409.769 298.343 427.629C269.047 445.465 226.813 453.5 175 453.5C123.186 453.5 79.5828 445.465 48.916 427.635C18.213 409.783 0.5 382.122 0.5 343C0.500055 303.923 18.1697 260.806 48.7988 227.46C52.5962 223.326 56.5936 219.341 60.7812 215.533C48.9476 206.168 38.1371 187.573 28.6279 153.57C18.0918 115.895 14.5898 80.0746 17.4609 52.6082C18.8963 38.8767 21.9269 27.206 26.4893 18.4314C31.0523 9.65574 37.1726 3.73228 44.7959 1.60034C52.4192 -0.531568 60.7243 1.35738 69.1777 6.49292C77.6302 11.6279 86.2756 20.0331 94.626 31.0281C111.329 53.0206 126.916 85.4613 137.452 123.136C143.344 144.205 145.956 160.415 145.988 173.021C155.329 171.373 165.011 170.5 175 170.5C182.452 170.5 189.704 170.986 196.747 171.917C196.924 159.472 199.553 143.595 205.274 123.136C215.811 85.4612 231.399 53.0206 248.102 31.0281C256.452 20.0331 265.097 11.6278 273.55 6.49292Z" fill="white" fill-opacity="0.2"/>
<path d="M273.55 6.49292C282.003 1.35758 290.308 -0.531484 297.931 1.60034C305.554 3.73225 311.674 9.6557 316.237 18.4314C320.8 27.206 323.831 38.8766 325.267 52.6082C328.138 80.0746 324.636 115.895 314.1 153.57C305.297 185.048 295.376 203.321 284.563 213.291C322.524 247.93 344 298.157 344 343C344 382.104 327.677 409.769 298.343 427.629C269.047 445.465 226.813 453.5 175 453.5C123.186 453.5 79.5828 445.465 48.916 427.635C18.213 409.783 0.5 382.122 0.5 343C0.500055 303.923 18.1697 260.806 48.7988 227.46C52.5962 223.326 56.5936 219.341 60.7812 215.533C48.9476 206.168 38.1371 187.573 28.6279 153.57C18.0918 115.895 14.5898 80.0746 17.4609 52.6082C18.8963 38.8767 21.9269 27.206 26.4893 18.4314C31.0523 9.65574 37.1726 3.73228 44.7959 1.60034C52.4192 -0.531568 60.7243 1.35738 69.1777 6.49292C77.6302 11.6279 86.2756 20.0331 94.626 31.0281C111.329 53.0206 126.916 85.4613 137.452 123.136C143.344 144.205 145.956 160.415 145.988 173.021C155.329 171.373 165.011 170.5 175 170.5C182.452 170.5 189.704 170.986 196.747 171.917C196.924 159.472 199.553 143.595 205.274 123.136C215.811 85.4612 231.399 53.0206 248.102 31.0281C256.452 20.0331 265.097 11.6278 273.55 6.49292Z" fill="white" fill-opacity="0.16"/>
<path d="M273.55 6.49292C282.003 1.35758 290.308 -0.531484 297.931 1.60034C305.554 3.73225 311.674 9.6557 316.237 18.4314C320.8 27.206 323.831 38.8766 325.267 52.6082C328.138 80.0746 324.636 115.895 314.1 153.57C305.297 185.048 295.376 203.321 284.563 213.291C322.524 247.93 344 298.157 344 343C344 382.104 327.677 409.769 298.343 427.629C269.047 445.465 226.813 453.5 175 453.5C123.186 453.5 79.5828 445.465 48.916 427.635C18.213 409.783 0.5 382.122 0.5 343C0.500055 303.923 18.1697 260.806 48.7988 227.46C52.5962 223.326 56.5936 219.341 60.7812 215.533C48.9476 206.168 38.1371 187.573 28.6279 153.57C18.0918 115.895 14.5898 80.0746 17.4609 52.6082C18.8963 38.8767 21.9269 27.206 26.4893 18.4314C31.0523 9.65574 37.1726 3.73228 44.7959 1.60034C52.4192 -0.531568 60.7243 1.35738 69.1777 6.49292C77.6302 11.6279 86.2756 20.0331 94.626 31.0281C111.329 53.0206 126.916 85.4613 137.452 123.136C143.344 144.205 145.956 160.415 145.988 173.021C155.329 171.373 165.011 170.5 175 170.5C182.452 170.5 189.704 170.986 196.747 171.917C196.924 159.472 199.553 143.595 205.274 123.136C215.811 85.4612 231.399 53.0206 248.102 31.0281C256.452 20.0331 265.097 11.6278 273.55 6.49292Z" stroke="#B8B8B8"/>
</svg>
