<svg width="353" height="462" viewBox="0 0 353 462" fill="none" xmlns="http://www.w3.org/2000/svg">
<g filter="url(#filter0_d_38_6)">
<path d="M347.5 347C347.5 424.872 282.553 457 179 457C75.4466 457 5 424.872 5 347C5 269.128 75.4466 175 179 175C282.553 175 347.5 269.128 347.5 347Z" fill="white"/>
<path d="M347.5 347C347.5 424.872 282.553 457 179 457C75.4466 457 5 424.872 5 347C5 269.128 75.4466 175 179 175C282.553 175 347.5 269.128 347.5 347Z" fill="white" fill-opacity="0.2"/>
<path d="M347.5 347C347.5 424.872 282.553 457 179 457C75.4466 457 5 424.872 5 347C5 269.128 75.4466 175 179 175C282.553 175 347.5 269.128 347.5 347Z" fill="white" fill-opacity="0.16"/>
<path d="M317.618 157.436C338.665 82.1749 331.581 14.4118 301.796 6.08214C272.011 -2.24748 230.803 52.0107 209.756 127.271C188.709 202.532 209.715 215.17 239.5 223.5C269.285 231.83 296.57 232.696 317.618 157.436Z" fill="white"/>
<path d="M317.618 157.436C338.665 82.1749 331.581 14.4118 301.796 6.08214C272.011 -2.24748 230.803 52.0107 209.756 127.271C188.709 202.532 209.715 215.17 239.5 223.5C269.285 231.83 296.57 232.696 317.618 157.436Z" fill="white" fill-opacity="0.2"/>
<path d="M317.618 157.436C338.665 82.1749 331.581 14.4118 301.796 6.08214C272.011 -2.24748 230.803 52.0107 209.756 127.271C188.709 202.532 209.715 215.17 239.5 223.5C269.285 231.83 296.57 232.696 317.618 157.436Z" fill="white" fill-opacity="0.16"/>
<path d="M33.1092 157.436C12.062 82.1749 19.1456 14.4118 48.9308 6.08214C78.7159 -2.24748 119.924 52.0107 140.971 127.271C162.018 202.532 141.012 215.17 111.227 223.5C81.4417 231.83 54.1564 232.696 33.1092 157.436Z" fill="white"/>
<path d="M33.1092 157.436C12.062 82.1749 19.1456 14.4118 48.9308 6.08214C78.7159 -2.24748 119.924 52.0107 140.971 127.271C162.018 202.532 141.012 215.17 111.227 223.5C81.4417 231.83 54.1564 232.696 33.1092 157.436Z" fill="white" fill-opacity="0.2"/>
<path d="M33.1092 157.436C12.062 82.1749 19.1456 14.4118 48.9308 6.08214C78.7159 -2.24748 119.924 52.0107 140.971 127.271C162.018 202.532 141.012 215.17 111.227 223.5C81.4417 231.83 54.1564 232.696 33.1092 157.436Z" fill="white" fill-opacity="0.16"/>
<path d="M277.55 10.4929C286.003 5.35758 294.308 3.46852 301.931 5.60034C309.554 7.73225 315.674 13.6557 320.237 22.4314C324.8 31.206 327.831 42.8766 329.267 56.6082C332.138 84.0746 328.636 119.895 318.1 157.57C309.297 189.048 299.376 207.321 288.563 217.291C326.524 251.93 348 302.157 348 347C348 386.104 331.677 413.769 302.343 431.629C273.047 449.465 230.813 457.5 179 457.5C127.186 457.5 83.5828 449.465 52.916 431.635C22.213 413.783 4.5 386.122 4.5 347C4.50006 307.923 22.1697 264.806 52.7988 231.46C56.5962 227.326 60.5936 223.341 64.7812 219.533C52.9476 210.168 42.1371 191.573 32.6279 157.57C22.0918 119.895 18.5898 84.0746 21.4609 56.6082C22.8963 42.8767 25.9269 31.206 30.4893 22.4314C35.0523 13.6557 41.1726 7.73228 48.7959 5.60034C56.4192 3.46843 64.7243 5.35738 73.1777 10.4929C81.6302 15.6279 90.2756 24.0331 98.626 35.0281C115.329 57.0206 130.916 89.4613 141.452 127.136C147.344 148.205 149.956 164.415 149.988 177.021C159.329 175.373 169.011 174.5 179 174.5C186.452 174.5 193.704 174.986 200.747 175.917C200.924 163.472 203.553 147.595 209.274 127.136C219.811 89.4612 235.399 57.0206 252.102 35.0281C260.452 24.0331 269.097 15.6278 277.55 10.4929Z" stroke="#7A7A7A"/>
</g>
<defs>
<filter id="filter0_d_38_6" x="0" y="0.237549" width="352.5" height="461.762" filterUnits="userSpaceOnUse" color-interpolation-filters="sRGB">
<feFlood flood-opacity="0" result="BackgroundImageFix"/>
<feColorMatrix in="SourceAlpha" type="matrix" values="0 0 0 0 0 0 0 0 0 0 0 0 0 0 0 0 0 0 127 0" result="hardAlpha"/>
<feOffset/>
<feGaussianBlur stdDeviation="2"/>
<feComposite in2="hardAlpha" operator="out"/>
<feColorMatrix type="matrix" values="0 0 0 0 0 0 0 0 0 0 0 0 0 0 0 0 0 0 0.7 0"/>
<feBlend mode="normal" in2="BackgroundImageFix" result="effect1_dropShadow_38_6"/>
<feBlend mode="normal" in="SourceGraphic" in2="effect1_dropShadow_38_6" result="shape"/>
</filter>
</defs>
</svg>
